# Blender 4.5.3 LTS
# www.blender.org
mtllib skeleton_skull.mtl
o Skull
v -0.250000 0.250000 0.250000
v -0.250000 -0.250000 -0.250000
v -0.250000 -0.250000 0.250000
v -0.250000 0.250000 -0.250000
v 0.250000 -0.250000 -0.250000
v 0.250000 0.250000 -0.250000
v 0.250000 -0.250000 0.250000
v 0.250000 0.250000 0.250000
v -0.250000 -0.250000 -0.250000
v -0.250000 0.250000 0.250000
v -0.250000 -0.250000 0.250000
v 0.250000 -0.250000 -0.250000
v -0.250000 0.250000 -0.250000
v 0.250000 -0.250000 0.250000
v 0.250000 0.250000 -0.250000
v 0.250000 0.250000 0.250000
vn -1.0000 -0.0000 -0.0000
vn -0.0000 -0.0000 -1.0000
vn 1.0000 -0.0000 -0.0000
vn -0.0000 -0.0000 1.0000
vn -0.0000 -1.0000 -0.0000
vn -0.0000 1.0000 -0.0000
vt 0.500000 0.750000
vt 0.375000 0.500000
vt 0.500000 0.500000
vt 0.375000 0.750000
vt 0.250000 0.500000
vt 0.250000 0.750000
vt 0.125000 0.500000
vt 0.125000 0.750000
vt -0.000000 0.500000
vt 0.375000 1.000000
vt 0.250000 1.000000
vt -0.000000 0.750000
vt 0.125000 1.000000
s 1
f 1/1/1 2/2/1 3/3/1
f 4/4/2 5/5/2 2/2/2
f 6/6/3 7/7/3 5/5/3
f 8/8/4 3/9/4 7/7/4
f 5/6/5 3/10/5 2/11/5
f 4/11/6 8/8/6 6/6/6
f 9/2/3 10/1/3 11/3/3
f 12/5/4 13/4/4 9/2/4
f 14/7/1 15/6/1 12/5/1
f 11/9/2 16/8/2 14/7/2
f 11/10/6 12/6/6 9/11/6
f 16/8/5 13/11/5 15/6/5
f 1/1/1 4/4/1 2/2/1
f 4/4/2 6/6/2 5/5/2
f 6/6/3 8/8/3 7/7/3
f 8/8/4 1/12/4 3/9/4
f 5/6/5 7/4/5 3/10/5
f 4/11/6 1/13/6 8/8/6
f 9/2/3 13/4/3 10/1/3
f 12/5/4 15/6/4 13/4/4
f 14/7/1 16/8/1 15/6/1
f 11/9/2 10/12/2 16/8/2
f 11/10/6 14/4/6 12/6/6
f 16/8/5 10/13/5 13/11/5
